<?xml version="1.0" encoding="UTF-8" standalone="no"?>
<!-- Created with Inkscape (http://www.inkscape.org/) -->

<svg
   width="512"
   height="512"
   viewBox="0 0 512 512"
   version="1.1"
   id="svg5"
   inkscape:version="1.2.1 (9c6d41e4, 2022-07-14)"
   sodipodi:docname="logo.svg"
   xmlns:inkscape="http://www.inkscape.org/namespaces/inkscape"
   xmlns:sodipodi="http://sodipodi.sourceforge.net/DTD/sodipodi-0.dtd"
   xmlns="http://www.w3.org/2000/svg"
   xmlns:svg="http://www.w3.org/2000/svg">
  <sodipodi:namedview
     id="namedview7"
     pagecolor="#000000"
     bordercolor="#000000"
     borderopacity="0.25"
     inkscape:showpageshadow="2"
     inkscape:pageopacity="0"
     inkscape:pagecheckerboard="0"
     inkscape:deskcolor="#bfbfbf"
     inkscape:document-units="px"
     showgrid="false"
     inkscape:zoom="0.85839844"
     inkscape:cx="168.33675"
     inkscape:cy="260.3686"
     inkscape:window-width="1390"
     inkscape:window-height="1035"
     inkscape:window-x="57"
     inkscape:window-y="23"
     inkscape:window-maximized="0"
     inkscape:current-layer="layer1" />
  <defs
     id="defs2" />
  <g
     inkscape:label="Layer 1"
     inkscape:groupmode="layer"
     id="layer1">
    <g
       id="g558"
       transform="matrix(0.91866492,0,0,0.92293887,16.675264,16.689154)">
      <g
         aria-label="42"
         transform="scale(0.91401321,1.0940761)"
         id="text193"
         style="font-weight:300;font-size:473.285px;font-family:'American Typewriter';-inkscape-font-specification:'American Typewriter, Light';fill:#ffffff;stroke-width:39.4402">
        <path
           d="m 258.12832,246.44455 h -53.95449 q -7.09928,0 -8.99242,1.89314 -1.41985,1.41985 -1.41985,8.51913 v 50.64149 q 0,16.56498 4.25956,22.2444 4.73285,5.67942 20.35126,5.67942 h 2.36642 l 12.30541,-0.47329 q 0,0 12.30541,0 9.4657,0 9.4657,5.20614 0,6.1527 -10.41227,6.1527 -7.09927,0 -19.40468,-1.41985 -14.19855,-1.41986 -18.9314,-1.89314 -16.09169,-0.94657 -20.82454,-0.94657 -5.20614,0 -21.29783,0.94657 -11.35884,0.94657 -33.60323,3.31299 h -0.94657 q -9.93899,0 -9.93899,-6.1527 0,-5.67942 10.41227,-5.67942 4.25957,0 13.25198,0.94657 8.99242,0.47328 13.72527,0.47328 14.19855,0 18.45811,-5.67942 4.73285,-5.67942 5.67942,-24.61082 l 0.47329,-12.30541 v -36.44294 q 0,-7.09928 -1.89314,-8.51913 -1.89314,-1.89314 -8.99242,-1.89314 H 23.852241 q -18.9314006,0 -18.9314006,-8.51913 0,-5.20614 7.5725596,-14.67184 L 166.31103,33.466298 q 11.83212,-14.671836 18.9314,-14.671836 8.51913,0 8.51913,12.778696 V 225.14672 q 0,7.09928 1.41985,8.99242 1.41986,1.41985 6.62599,1.41985 h 2.36643 l 39.28265,-0.94657 q 1.89314,-0.47328 5.20614,-0.47328 3.31299,-0.47329 4.73285,-0.47329 h 2.36642 q 11.35884,0 11.35884,6.15271 0,6.62599 -8.99241,6.62599 z m -87.55773,-10.41227 q 7.57256,0 8.99242,-1.41986 1.89314,-1.89314 1.89314,-8.99241 V 42.458713 q 0,-6.152705 -2.36643,-6.152705 -1.41985,0 -3.78628,2.83971 L 22.432386,229.40629 q -2.83971,3.31299 -2.83971,4.73285 0,1.89314 5.67942,1.89314 z"
           id="path527" />
        <path
           d="m 316.81541,309.39145 q 0,0.94657 0.94657,9.4657 17.98483,-37.38951 61.05376,-37.38951 29.34367,0 58.21406,26.03067 21.77111,19.40469 26.50396,22.71768 13.25198,10.88556 30.29024,10.88556 18.9314,0 33.12995,-14.67184 14.19855,-15.14512 14.19855,-35.02309 0,-14.19855 -7.09928,-24.61082 -1.41985,-3.31299 -3.78628,-3.31299 -1.41985,0 -5.20613,4.73285 -3.313,4.25956 -8.04585,4.25956 -10.88555,0 -10.88555,-10.88555 0,-5.67942 4.73285,-9.4657 5.20613,-4.25957 11.83212,-4.25957 11.83213,0 20.35126,12.7787 8.51913,12.77869 8.51913,30.29024 0,25.55739 -17.03826,43.54222 -17.03826,17.51155 -41.1758,17.51155 -15.14512,0 -26.97724,-6.626 -11.83213,-6.1527 -33.60324,-26.03067 -27.92381,-25.08411 -56.32091,-25.08411 -37.8628,0 -51.58807,27.45053 -0.94657,3.78628 -0.94657,4.25957 0,2.83971 1.89314,2.83971 0.47329,0 1.41986,-0.47329 0.94657,-0.47328 3.78628,-0.47328 10.88555,0 10.88555,10.88555 0,11.83213 -13.25198,11.83213 -20.82454,0 -20.82454,-36.91623 0,-48.27507 34.07652,-78.56531 26.03068,-23.19097 83.77145,-39.75594 43.06893,-12.7787 57.74077,-19.87797 15.14512,-7.57256 25.0841,-21.77111 12.30541,-17.51155 12.30541,-43.54222 0,-37.862802 -25.0841,-59.160627 -24.61082,-21.77111 -69.09961,-21.77111 -77.61874,0 -98.91657,54.427775 -4.25956,10.885555 -4.25956,19.404682 0,9.93899 5.67942,9.93899 1.41985,0 4.73285,-1.89314 3.78628,-2.36643 6.1527,-2.36643 13.72527,0 13.72527,15.14512 0,7.09928 -5.67942,12.30541 -5.20614,4.73285 -12.7787,4.73285 -23.19096,0 -23.19096,-31.23681 0,-39.755937 32.65666,-65.313327 32.65667,-26.030676 82.82488,-26.030676 47.80178,0 76.19888,24.610821 28.87039,24.61082 28.87039,65.313332 0,59.63391 -54.42778,80.45845 -21.29782,8.04584 -53.00792,17.03826 -45.90864,12.77869 -70.99275,32.18338 -24.61082,19.40468 -33.60323,49.69492 -3.78628,12.7787 -3.78628,21.77111 z"
           id="path529" />
      </g>
      <g
         aria-label="Borgata"
         transform="scale(1.0073372,0.99271621)"
         id="text463"
         style="font-weight:300;font-size:2530.4px;font-family:'American Typewriter';-inkscape-font-specification:'American Typewriter, Light';fill:#ffffff;stroke-width:6.28459">
        <path
           d="m 73.892944,428.9303 q -3.217728,1.87701 -8.71468,3.75402 21.853737,4.42438 21.853737,24.66925 0,12.87091 -8.848753,19.57451 -7.37396,5.63103 -21.585593,5.63103 -4.826592,0 -11.127976,-0.26815 l -9.250968,-0.40221 Q 30.18547,481.6206 28.040318,481.6206 h -3.754016 q -2.279224,0 -6.971744,0.53629 -4.692521,0.53629 -6.837673,0.53629 H 9.9405973 q -2.8155121,0 -2.8155121,-1.60887 0,-2.01108 2.9495838,-2.01108 0.134072,0 3.217728,0.26815 3.083657,0.26814 4.290305,0.26814 4.02216,0 5.36288,-2.68144 0.938504,-1.74293 1.072576,-6.43545 l 0.268144,-10.0554 -0.268144,-56.0421 q -0.134072,-4.69252 -0.938504,-6.43546 -1.474792,-2.68144 -5.496952,-2.68144 -1.072576,0 -4.290305,0.26814 -1.608864,0.13408 -3.217728,0.13408 -2.9495838,0 -2.9495838,-1.74294 0,-1.74294 2.8155121,-1.74294 h 0.5362877 l 2.949584,0.26815 q 1.877009,0 5.362881,0.40221 3.619944,0.40222 5.496952,0.40222 h 3.754016 q 2.01108,0 11.127977,-0.53629 9.116896,-0.53629 15.686424,-0.53629 13.407201,0 19.976729,4.29031 8.312465,5.49695 8.312465,15.68642 0,11.39612 -9.250969,16.759 z m -45.852626,-3.21772 q 0,4.82659 2.547368,5.63102 1.34072,0.40222 4.290304,0.40222 h 12.334625 q 9.250968,0 12.602769,-0.40222 6.971744,-0.9385 11.798336,-4.2903 7.373961,-4.96067 7.373961,-14.21164 0,-9.38504 -7.776177,-14.21163 -5.36288,-3.3518 -16.759001,-3.3518 -6.03324,0 -11.530192,0.26814 l -8.312465,0.40222 q -4.558448,0.26814 -5.631024,1.47479 -0.938504,1.07258 -0.938504,6.43546 z m 0.134072,46.65705 q 0,4.29031 2.01108,5.36288 1.34072,0.80444 6.569529,1.07258 l 8.580608,0.53629 q 4.290304,0.26814 7.508032,0.26814 8.044321,0 11.664265,-0.53629 6.435456,-1.07257 10.591688,-4.42437 7.776177,-6.43546 7.776177,-17.83158 0,-18.63601 -18.904153,-21.58559 -6.03324,-0.93851 -13.675345,-0.93851 -0.938504,0 -2.547368,0 -2.01108,0.13408 -2.68144,0.13408 l -8.580608,0.13407 q -3.083657,0 -4.022161,0.13407 -2.815512,0.26814 -3.485872,1.07258 -0.67036,0.80443 -0.938504,2.81551 z"
           style="font-size:134.072px"
           id="path512" />
        <path
           d="m 132.08012,415.12089 q 14.07756,0 22.79224,9.65318 8.84876,9.65319 8.84876,25.20554 0,15.15014 -8.84876,24.66925 -8.71468,9.51911 -22.79224,9.51911 -13.67534,0 -22.39002,-9.92133 -8.71468,-9.92133 -8.71468,-25.47368 0,-14.88199 8.71468,-24.26703 8.71468,-9.38504 22.39002,-9.38504 z m 0,66.36564 q 12.33463,0 20.1108,-8.58061 7.77618,-8.71468 7.77618,-22.52409 0,-14.47978 -7.77618,-23.46261 -7.6421,-9.11689 -19.97673,-9.11689 -12.33462,0 -19.97672,8.71468 -7.50804,8.58061 -7.50804,22.5241 0,14.61384 7.50804,23.59667 7.50803,8.84875 19.84265,8.84875 z"
           style="font-size:134.072px"
           id="path514" />
        <path
           d="m 192.94876,427.9918 q 7.37396,-12.87091 21.04931,-12.87091 8.04432,0 13.13905,4.55845 5.22881,4.42437 5.22881,11.53019 0,4.69252 -2.4133,7.91025 -2.27922,3.08365 -5.89916,3.08365 -4.8266,0 -4.8266,-4.42437 0,-4.02216 4.02216,-4.02216 1.07258,0 2.14516,0.80443 1.07257,0.80443 1.47479,0.80443 1.74293,0 1.74293,-4.82659 0,-5.63103 -4.15623,-9.1169 -4.15623,-3.61994 -10.85983,-3.61994 -11.53019,0 -16.759,8.58061 -3.88809,6.43545 -3.88809,19.84265 v 11.39612 q 0,15.68643 1.07258,18.90416 1.07257,3.21772 6.16731,3.21772 0.9385,0 2.81551,-0.13407 1.87701,-0.13407 2.81551,-0.13407 h 0.67036 q 2.94959,0 2.94959,1.60886 0,1.74294 -2.54737,1.74294 -0.40222,0 -0.40222,0 l -4.69252,-0.40222 -5.49695,-0.40221 -4.02216,-0.13407 h -2.4133 l -3.88808,0.13407 -5.49696,0.40221 -4.69252,0.40222 q -0.13407,0 -0.40221,0 -2.54737,0 -2.54737,-1.60886 0,-1.74294 2.94958,-1.74294 h 0.67036 q 0.93851,0 2.81552,0.13407 1.877,0.13407 2.81551,0.13407 5.22881,0 6.30138,-3.21772 1.07258,-3.21773 1.07258,-18.90416 v -21.0493 q 0,-9.65319 0,-8.44654 -0.26815,-6.97174 -2.01108,-8.04432 -1.07258,-0.67036 -3.48587,-0.67036 -0.80444,0 -4.42438,0.26815 l -4.02216,0.26814 q -2.68144,0 -2.68144,-1.74294 0,-1.74293 2.27922,-1.74293 1.20665,0 4.29031,0.26814 1.47479,0.13407 3.08365,0.13407 h 2.01108 q 1.4748,0 4.29031,-0.40221 0.26814,0 0.67036,-0.13407 0.53629,0 0.67036,0 2.81551,0 2.81551,2.94958 z"
           style="font-size:134.072px"
           id="path516" />
        <path
           d="m 270.17381,458.42615 q -12.33463,0 -19.84266,-7.50804 h -0.80443 q -3.21773,0 -5.22881,1.87701 -2.01108,1.87701 -2.01108,4.96067 0,9.38504 17.96565,9.65318 l 9.51911,0.13407 q 16.22271,0.26815 23.86482,3.3518 11.79833,4.82659 11.79833,16.22272 0,9.92132 -8.98282,15.15013 -8.98282,5.22881 -26.00997,5.22881 -16.759,0 -26.00997,-5.22881 -9.25097,-5.09473 -9.25097,-14.61385 0,-12.46869 16.62493,-18.23379 -13.27313,-2.01108 -13.27313,-11.79834 0,-7.6421 9.65319,-10.0554 -2.27923,-4.82659 -2.27923,-9.65318 0,-9.92133 6.83768,-16.35679 6.97174,-6.43545 17.56343,-6.43545 7.50803,0 15.68642,4.55845 -0.53629,-2.27923 -0.53629,-3.61995 0,-4.55845 3.48588,-7.6421 3.61994,-3.08366 8.98282,-3.08366 4.55845,0 7.50803,2.54737 2.94959,2.54737 2.94959,6.43546 0,2.68144 -1.74294,4.69252 -1.60886,1.877 -4.02216,1.877 -4.15623,0 -4.15623,-4.02216 0,-3.75401 3.3518,-3.75401 0.13407,0 1.20665,0.26814 -0.26815,0 0.67036,0.13407 0.9385,0 0.9385,-1.07257 0,-1.60887 -2.01108,-2.81551 -1.87701,-1.20665 -4.55845,-1.20665 -4.2903,0 -6.83767,2.41329 -2.54737,2.4133 -2.54737,6.43546 0,2.14515 1.07258,4.2903 l 2.68144,5.36288 q 2.27922,4.55845 2.27922,10.0554 0,9.65319 -6.83767,15.55236 -6.7036,5.89917 -17.6975,5.89917 z m 0.13407,-2.68144 q 9.38504,0 15.01606,-5.09474 5.63103,-5.09474 5.63103,-13.67535 0,-8.71468 -5.63103,-13.94348 -5.49695,-5.22881 -14.74792,-5.22881 -9.38504,0 -15.15013,5.49695 -5.7651,5.36288 -5.7651,14.21163 0,8.31247 5.63102,13.27313 5.63103,4.96067 15.01607,4.96067 z m 0.53629,49.07035 q 14.61384,0 22.65817,-4.55845 8.17839,-4.55845 8.17839,-12.87091 0,-17.16122 -32.71357,-17.16122 -14.34571,0 -22.25595,4.55845 -7.77618,4.55845 -7.77618,13.00499 0,8.17839 8.17839,12.60276 8.31247,4.42438 23.73075,4.42438 z"
           style="font-size:134.072px"
           id="path518" />
        <path
           d="m 358.79496,469.95634 -0.13407,-1.07258 -0.53629,0.93851 q -1.74293,2.94958 -4.96066,6.16731 -8.31247,8.17839 -20.64709,8.17839 -9.65318,0 -15.68642,-5.09474 -6.03325,-5.09473 -6.03325,-13.27312 0,-6.83768 4.29031,-11.79834 4.2903,-4.96066 11.39612,-6.43546 4.82659,-0.9385 11.39612,-1.34072 10.85983,-0.67036 15.68642,-3.75401 4.8266,-3.21773 4.8266,-9.78726 0,-6.7036 -5.22881,-10.72576 -5.22881,-4.15623 -13.80942,-4.15623 -8.98282,0 -14.88199,3.88809 -5.7651,3.88808 -5.7651,9.78725 0,2.14515 1.20665,2.14515 0.26815,0 0.80443,-0.53628 0,-0.13408 0.26815,-0.80444 0.9385,-2.27922 3.61994,-2.27922 4.02216,0 4.02216,4.2903 0,2.27923 -1.87701,4.02216 -1.74293,1.60887 -4.2903,1.60887 -3.08366,0 -5.36288,-2.27923 -2.14515,-2.41329 -2.14515,-5.63102 0,-7.23989 6.83767,-12.06648 6.97174,-4.82659 17.29529,-4.82659 10.45761,0 16.49085,4.96066 6.56953,5.49695 6.56953,17.16122 v 25.8759 l 0.26815,7.50803 q 0.40221,10.85983 6.97174,10.85983 7.23989,0 7.23989,-9.92133 v -0.67036 l -0.13407,-5.89917 q -0.13407,-3.88808 1.87701,-3.88808 1.74293,0 1.74293,2.68144 l -0.13407,5.36288 q -0.40222,15.01606 -10.72576,15.01606 -9.65319,0 -10.32355,-11.79834 z m -25.74182,11.53019 q 10.72576,0 18.09972,-7.50803 7.50803,-7.50803 7.50803,-18.09972 v -13.00499 q 0,-1.34072 -0.53629,-1.34072 -0.13407,0 -1.47479,1.60887 -4.2903,5.22881 -19.03822,6.16731 -8.58061,0.53629 -12.87092,2.01108 -4.15623,1.47479 -6.97174,4.96066 -3.21773,3.88809 -3.21773,9.65319 0,6.7036 5.22881,11.12797 5.22881,4.42438 13.27313,4.42438 z"
           style="font-size:134.072px"
           id="path520" />
        <path
           d="m 397.13952,421.2882 q -0.13407,0.80443 -0.13407,4.42438 v 28.15512 q 0,13.27313 1.60886,19.03822 2.4133,8.58061 10.99391,8.58061 6.83767,0 9.65318,-4.55845 2.81551,-4.69252 2.81551,-15.82049 v -4.02216 q 0,-0.40222 0,-0.80444 -0.13407,-0.40221 -0.13407,-0.53628 0,-2.81552 1.87701,-2.81552 1.87701,0 1.87701,2.81552 v 3.3518 q 0,9.38504 -1.34072,14.74792 -2.54737,10.32354 -14.74792,10.32354 -16.08865,0 -16.08865,-23.06038 v -35.39501 q 0,-4.29031 -0.67036,-5.22881 -0.53628,-1.07258 -3.21772,-1.07258 -0.80444,0 -4.02216,0.26815 l -3.08366,0.26814 q -2.54737,0 -2.54737,-1.87701 0,-1.60886 2.4133,-1.60886 1.07257,0 3.21773,0.26814 2.14515,0.13407 3.21772,0.13407 4.15624,0 5.09474,-2.54736 0.53629,-1.4748 0.53629,-5.22881 v -0.67036 q 0,-5.63103 0.26814,-6.97175 0.40222,-1.47479 1.60887,-1.47479 1.47479,0 1.47479,2.14515 v 0.26815 l -0.40222,6.43545 q -0.13407,2.14516 -0.13407,5.09474 0,2.94958 3.88809,2.94958 h 4.42438 q 1.47479,0 4.42437,-0.13407 3.08366,-0.26814 4.55845,-0.26814 2.68144,0 2.68144,1.74293 0,1.74294 -2.94958,1.74294 h -0.26815 l -4.15623,-0.13407 q -1.07258,0 -4.42438,-0.26815 -2.81551,-0.13407 -4.42437,-0.13407 -3.61995,0 -3.88809,1.87701 z"
           style="font-size:134.072px"
           id="path522" />
        <path
           d="m 480.80021,469.95634 -0.13407,-1.07258 -0.53629,0.93851 q -1.74293,2.94958 -4.96066,6.16731 -8.31247,8.17839 -20.64709,8.17839 -9.65319,0 -15.68643,-5.09474 -6.03324,-5.09473 -6.03324,-13.27312 0,-6.83768 4.29031,-11.79834 4.2903,-4.96066 11.39612,-6.43546 4.82659,-0.9385 11.39612,-1.34072 10.85983,-0.67036 15.68642,-3.75401 4.8266,-3.21773 4.8266,-9.78726 0,-6.7036 -5.22881,-10.72576 -5.22881,-4.15623 -13.80942,-4.15623 -8.98282,0 -14.88199,3.88809 -5.7651,3.88808 -5.7651,9.78725 0,2.14515 1.20665,2.14515 0.26814,0 0.80443,-0.53628 0,-0.13408 0.26815,-0.80444 0.9385,-2.27922 3.61994,-2.27922 4.02216,0 4.02216,4.2903 0,2.27923 -1.87701,4.02216 -1.74293,1.60887 -4.2903,1.60887 -3.08366,0 -5.36288,-2.27923 -2.14515,-2.41329 -2.14515,-5.63102 0,-7.23989 6.83767,-12.06648 6.97174,-4.82659 17.29529,-4.82659 10.45761,0 16.49085,4.96066 6.56953,5.49695 6.56953,17.16122 v 25.8759 l 0.26815,7.50803 q 0.40221,10.85983 6.97174,10.85983 7.23989,0 7.23989,-9.92133 v -0.67036 l -0.13407,-5.89917 q -0.13408,-3.88808 1.877,-3.88808 1.74294,0 1.74294,2.68144 l -0.13407,5.36288 q -0.40222,15.01606 -10.72576,15.01606 -9.65319,0 -10.32355,-11.79834 z m -25.74182,11.53019 q 10.72576,0 18.09972,-7.50803 7.50803,-7.50803 7.50803,-18.09972 v -13.00499 q 0,-1.34072 -0.53629,-1.34072 -0.13407,0 -1.47479,1.60887 -4.2903,5.22881 -19.03823,6.16731 -8.5806,0.53629 -12.87091,2.01108 -4.15623,1.47479 -6.97174,4.96066 -3.21773,3.88809 -3.21773,9.65319 0,6.7036 5.22881,11.12797 5.22881,4.42438 13.27313,4.42438 z"
           style="font-size:134.072px"
           id="path524" />
      </g>
    </g>
  </g>
</svg>
